<svg id="Layer_2" data-name="Layer 2" xmlns="http://www.w3.org/2000/svg" viewBox="0 0 1449.6 1613.93"><defs><style>.cls-1,.cls-2{fill:none;stroke:#fff;stroke-miterlimit:10;}.cls-1{stroke-width:40px;}.cls-2{stroke-width:25px;}</style></defs><title>logo</title><path class="cls-1" d="M737.2,49.49,254,303.76c-15.14,8-9.48,30.89,7.63,30.89H1228c17.11,0,22.77-22.92,7.63-30.89L752.46,49.49A16.39,16.39,0,0,0,737.2,49.49Z" transform="translate(-13 -27.61)"/><rect class="cls-1" x="321.95" y="307.04" width="139.36" height="622.59"/><rect class="cls-1" x="662.36" y="307.04" width="139.36" height="622.59"/><rect class="cls-1" x="1002.77" y="307.04" width="139.36" height="622.59"/><rect class="cls-1" x="232.25" y="929.63" width="999.17" height="148.03" rx="16.31" ry="16.31"/><rect class="cls-1" x="20" y="1077.66" width="1409.6" height="91.85" rx="16.31" ry="16.31"/><path class="cls-1" d="M404.63,1197.12h680.82v309.32a15.36,15.36,0,0,1-22,13.84l-81.17-39.07a546.9,546.9,0,0,0-474.45,0l-81.17,39.07a15.36,15.36,0,0,1-22-13.84Z" transform="translate(-13 -27.61)"/><circle class="cls-2" cx="1270.59" cy="1408.34" r="55.49"/><path class="cls-2" d="M1271.75,1498.26l-63.67,110.29a13.66,13.66,0,0,0,11.83,20.49h127.35a13.66,13.66,0,0,0,11.83-20.49l-63.67-110.29A13.66,13.66,0,0,0,1271.75,1498.26Z" transform="translate(-13 -27.61)"/><line class="cls-1" x1="1270.59" y1="1169.51" x2="1270.59" y2="1352.85"/></svg>